HIERARCHY
ROOT joint_Root
{
	OFFSET 0.0 0.0 0.0
	CHANNELS 6 Xposition Yposition Zposition Zrotation Xrotation Yrotation 
	JOINT Hips
	{
		OFFSET -0.726466 93.3139 -2.00062
		CHANNELS 6 Xposition Yposition Zposition Zrotation Xrotation Yrotation 
		JOINT Spine
		{
			OFFSET 15.7357 0.0 0.0
			CHANNELS 6 Xposition Yposition Zposition Zrotation Xrotation Yrotation 
			JOINT Chest
			{
				OFFSET 8.98455 -0.406207 0.0
				CHANNELS 6 Xposition Yposition Zposition Zrotation Xrotation Yrotation 
				JOINT Neck
				{
					OFFSET 16.3773 0.0 0.0
					CHANNELS 6 Xposition Yposition Zposition Zrotation Xrotation Yrotation 
					JOINT Head
					{
						OFFSET 6.45672 0.0 0.0
						CHANNELS 6 Xposition Yposition Zposition Zrotation Xrotation Yrotation 
						End Site
						{
							OFFSET 0.0 0.0 0.0
						}
					}
				}
				JOINT Shoulder_L
				{
					OFFSET 12.9942 -0.242716 4.98039
					CHANNELS 6 Xposition Yposition Zposition Zrotation Xrotation Yrotation 
					JOINT UpperArm_L
					{
						OFFSET 5.34809 0.0 0.0
						CHANNELS 6 Xposition Yposition Zposition Zrotation Xrotation Yrotation 
						JOINT LowerArm_L
						{
							OFFSET 24.3286 1.87007e-05 0.0
							CHANNELS 6 Xposition Yposition Zposition Zrotation Xrotation Yrotation 
							JOINT Hand_L
							{
								OFFSET 22.2916 0.0 0.0
								CHANNELS 6 Xposition Yposition Zposition Zrotation Xrotation Yrotation 
								End Site
								{
									OFFSET 0.0 0.0 0.0
								}
							}
						}
					}
				}
				JOINT Shoulder_R
				{
					OFFSET 12.9945 -0.242716 -4.98039
					CHANNELS 6 Xposition Yposition Zposition Zrotation Xrotation Yrotation 
					JOINT UpperArm_R
					{
						OFFSET -5.34813 0.0 0.0
						CHANNELS 6 Xposition Yposition Zposition Zrotation Xrotation Yrotation 
						JOINT LowerArm_R
						{
							OFFSET -24.3289 0.000322201 0.0
							CHANNELS 6 Xposition Yposition Zposition Zrotation Xrotation Yrotation 
							JOINT Hand_R
							{
								OFFSET -22.2915 -0.000108084 0.0
								CHANNELS 6 Xposition Yposition Zposition Zrotation Xrotation Yrotation 
								End Site
								{
									OFFSET 0.0 0.0 0.0
								}
							}
						}
					}
				}
			}
		}
		JOINT UpperLeg_L
		{
			OFFSET -2.19248 -6.46944 0.0
			CHANNELS 6 Xposition Yposition Zposition Zrotation Xrotation Yrotation 
			JOINT LowerLeg_L
			{
				OFFSET 39.0811 0.0 -1.23785e-05
				CHANNELS 6 Xposition Yposition Zposition Zrotation Xrotation Yrotation 
				JOINT Foot_L
				{
					OFFSET 40.9854 0.0 -1.26872e-05
					CHANNELS 6 Xposition Yposition Zposition Zrotation Xrotation Yrotation 
					JOINT Toes_L
					{
						OFFSET 11.7543 0.0 0.0
						CHANNELS 6 Xposition Yposition Zposition Zrotation Xrotation Yrotation 
						End Site
						{
							OFFSET 0.0 0.0 0.0
						}
					}
				}
			}
		}
		JOINT UpperLeg_R
		{
			OFFSET -2.19251 6.46944 0.0
			CHANNELS 6 Xposition Yposition Zposition Zrotation Xrotation Yrotation 
			JOINT LowerLeg_R
			{
				OFFSET -39.0811 -0.00228153 -0.0401928
				CHANNELS 6 Xposition Yposition Zposition Zrotation Xrotation Yrotation 
				JOINT Foot_R
				{
					OFFSET -40.9854 0.0 0.0
					CHANNELS 6 Xposition Yposition Zposition Zrotation Xrotation Yrotation 
					JOINT Toes_R
					{
						OFFSET -11.7543 0.0 0.0
						CHANNELS 6 Xposition Yposition Zposition Zrotation Xrotation Yrotation 
						End Site
						{
							OFFSET 0.0 0.0 0.0
						}
					}
				}
			}
		}
	}
}
MOTION
Frames:	7
Frame Time:	0.0333333
0.000000 0.000000 0.000000 0.000000 0.000000 -0.000000 1.298130 84.595900 57.129600 -85.772900 -3.644870 175.235000 15.735700 0.000005 -0.000001 82.968900 80.367700 -79.493500 8.984550 -0.406207 -0.000000 11.437600 -2.227930 7.171990 16.377300 -0.000001 -0.000001 3.033140 -3.470560 -0.237092 6.456720 -0.000001 -0.000000 -3.726570 0.039867 -4.137150 12.994200 -0.242716 4.980390 -88.973600 -2.896340 -70.468300 5.348090 -0.000007 -0.000001 -61.670400 26.760700 -9.338940 24.328600 0.000019 0.000005 -5.752330 -2.442250 -67.086700 22.291600 -0.000001 0.000005 -1.451220 5.611680 -12.072200 12.994500 -0.242716 -4.980390 88.208900 3.448690 -62.531900 -5.348130 -0.000001 -0.000004 -47.690000 28.042900 -6.359310 -24.328900 0.000322 -0.000009 -4.138010 -2.389450 -60.039400 -22.291500 -0.000108 -0.000004 -0.439955 5.587660 -10.623700 -2.192480 -6.469440 -0.000000 -167.984000 -2.371770 1.487450 39.081100 -0.000007 -0.000012 0.286698 -0.031483 83.731700 40.985400 -0.000006 -0.000013 1.338280 -8.085440 -33.707800 11.754300 -0.000000 0.000003 -0.005545 -0.066650 -19.289000 -2.192510 6.469440 -0.000001 -170.966000 6.789800 141.533000 -39.081100 -0.002282 -0.040193 0.095367 -0.068620 53.321600 -40.985400 0.000008 0.000006 6.866090 -10.059900 -70.220000 -11.754300 -0.000006 -0.000006 -0.009118 -0.096922 -20.521100
0.000000 0.000000 0.000000 0.000000 0.000000 -0.000000 1.612980 82.188200 48.584600 -83.666600 -1.475140 176.573000 15.735700 0.000005 -0.000001 86.400000 79.681500 -82.223900 8.984550 -0.406207 -0.000000 12.886200 -1.096250 8.476430 16.377300 -0.000001 -0.000001 2.288900 -2.239060 -0.345663 6.456720 -0.000001 -0.000000 -3.830290 0.352143 -5.355480 12.994200 -0.242716 4.980390 -89.280100 -1.899090 -69.233600 5.348090 -0.000007 -0.000001 -62.511900 27.122200 -4.110150 24.328600 0.000019 0.000005 -7.778400 -4.694040 -59.094000 22.291600 -0.000001 0.000005 -1.565590 5.617670 -12.464600 12.994500 -0.242716 -4.980390 88.455600 3.250560 -64.570000 -5.348130 -0.000001 -0.000004 -40.961800 26.351100 -19.195700 -24.328900 0.000322 -0.000009 -3.330890 -1.951410 -59.660000 -22.291500 -0.000108 -0.000004 0.670704 5.591230 -10.834500 -2.192480 -6.469440 -0.000000 -167.971000 -2.977730 -8.560120 39.081100 -0.000007 -0.000012 0.140207 0.028313 101.412000 40.985400 -0.000006 -0.000013 3.916630 -3.593860 -34.934400 11.754300 -0.000000 0.000003 -0.005975 -0.070615 -19.450700 -2.192510 6.469440 -0.000001 -168.637000 7.873090 145.941000 -39.081100 -0.002282 -0.040193 0.291443 -0.161055 60.806400 -40.985400 0.000008 0.000006 8.585550 -9.759310 -80.684500 -11.754300 -0.000006 -0.000006 -0.005564 -0.066823 -19.292400
0.000000 0.000000 0.000000 0.000000 0.000000 -0.000000 1.430830 81.102900 40.450800 -85.389100 -0.576059 175.430000 15.735700 0.000005 -0.000001 89.747600 79.984300 -86.248300 8.984550 -0.406207 -0.000000 12.273200 0.050237 6.991990 16.377300 -0.000001 -0.000001 2.412940 -2.542270 0.262392 6.456720 -0.000001 -0.000000 -3.039280 -0.935938 -5.642610 12.994200 -0.242716 4.980390 -88.994700 -2.604580 -68.886800 5.348090 -0.000007 -0.000001 -63.640600 26.951000 -0.631060 24.328600 0.000019 0.000005 -3.053710 -2.431190 -51.442200 22.291600 -0.000001 0.000005 -3.529910 5.608770 -11.888600 12.994500 -0.242716 -4.980390 88.974300 2.237290 -65.367300 -5.348130 -0.000001 -0.000004 -36.725000 23.234600 -28.984900 -24.328900 0.000322 -0.000009 -2.942300 -1.611910 -61.299700 -22.291500 -0.000108 -0.000004 1.137260 5.589100 -10.711900 -2.192480 -6.469440 -0.000000 -172.235000 -4.058550 -22.828600 39.081100 -0.000007 -0.000012 -0.095550 -0.040523 112.989000 40.985400 -0.000006 -0.000013 7.501310 -2.544640 -37.232700 11.754300 -0.000000 0.000003 -0.005996 -0.070805 -19.458500 -2.192510 6.469440 -0.000001 -171.304000 9.121270 150.412000 -39.081100 -0.002282 -0.040193 0.292859 -0.146297 63.205100 -40.985400 0.000008 0.000006 7.644360 -8.797790 -87.880100 -11.754300 -0.000006 -0.000006 -0.004386 -0.055398 -18.826800
0.000000 0.000000 0.000000 0.000000 0.000000 -0.000000 0.897815 81.599400 31.748900 -87.141300 1.818850 174.164000 15.735700 0.000005 -0.000001 96.594400 80.313400 -94.077600 8.984550 -0.406207 -0.000000 11.439900 2.287580 4.802800 16.377300 -0.000001 -0.000001 2.691060 -2.750640 1.081080 6.456720 -0.000001 -0.000000 -2.357510 -2.437600 -5.829780 12.994200 -0.242716 4.980390 -88.985800 -2.500720 -67.913500 5.348090 -0.000007 -0.000001 -62.943000 26.608100 4.032670 24.328600 0.000019 0.000005 0.901841 0.727069 -51.155300 22.291600 -0.000001 0.000005 -5.413990 5.617080 -12.420800 12.994500 -0.242716 -4.980390 89.526300 1.064030 -66.006200 -5.348130 -0.000001 -0.000004 -33.095900 20.242600 -35.784300 -24.328900 0.000322 -0.000009 -1.942810 -0.944288 -64.089100 -22.291500 -0.000108 -0.000004 1.533450 5.586910 -10.596300 -2.192480 -6.469440 -0.000000 -177.433000 -6.744990 -34.511600 39.081100 -0.000007 -0.000012 -0.225920 -0.107508 115.451000 40.985400 -0.000006 -0.000013 9.544420 -6.344730 -42.686700 11.754300 -0.000000 0.000003 -0.005444 -0.065708 -19.250600 -2.192510 6.469440 -0.000001 -175.249000 9.701890 158.189000 -39.081100 -0.002282 -0.040193 0.231302 -0.136442 59.113200 -40.985400 0.000008 0.000006 6.868020 -5.637540 -90.823500 -11.754300 -0.000006 -0.000006 -0.006123 -0.071946 -19.501300
0.000000 0.000000 0.000000 0.000000 0.000000 -0.000000 -0.032292 83.840100 22.213000 -89.866100 4.856600 172.940000 15.735700 0.000005 -0.000001 103.421000 80.495700 -102.458000 8.984550 -0.406207 -0.000000 10.710100 4.405150 1.512390 16.377300 -0.000001 -0.000001 3.253810 -2.519660 1.531680 6.456720 -0.000001 -0.000000 -2.272270 -3.739700 -4.961820 12.994200 -0.242716 4.980390 -88.805000 -2.740630 -66.432900 5.348090 -0.000007 -0.000001 -62.568500 26.473700 8.555190 24.328600 0.000019 0.000005 -2.402960 -1.833060 -52.673500 22.291600 -0.000001 0.000005 -4.917870 5.618190 -12.496200 12.994500 -0.242716 -4.980390 89.995900 0.009344 -66.642900 -5.348130 -0.000001 -0.000004 -31.809600 18.193700 -39.358500 -24.328900 0.000322 -0.000009 -2.188790 -0.946117 -66.611600 -22.291500 -0.000108 -0.000004 2.437350 5.581660 -10.303100 -2.192480 -6.469440 -0.000000 176.411000 -8.016220 -42.106500 39.081100 -0.000007 -0.000012 -0.203480 -0.067886 108.454000 40.985400 -0.000006 -0.000013 8.668630 -8.182930 -49.408800 11.754300 -0.000000 0.000003 -0.005347 -0.064795 -19.213400 -2.192510 6.469440 -0.000001 178.794000 9.368810 167.521000 -39.081100 -0.002282 -0.040193 0.078610 -0.063626 49.826800 -40.985400 0.000008 0.000006 6.764430 -1.082240 -84.128400 -11.754300 -0.000006 -0.000006 -2.169860 -2.150110 -26.570600
0.000000 0.000000 0.000000 0.000000 0.000000 -0.000000 -0.785908 87.162000 12.542300 -91.692000 7.415430 171.898000 15.735700 0.000005 -0.000001 108.309000 80.622600 -108.682000 8.984550 -0.406207 -0.000000 10.097200 5.846450 -1.262680 16.377300 -0.000001 -0.000001 4.019520 -1.755220 1.900070 6.456720 -0.000001 -0.000000 -2.246780 -4.549540 -4.263450 12.994200 -0.242716 4.980390 -88.332100 -3.558500 -64.870100 5.348090 -0.000007 -0.000001 -63.417700 24.226200 12.537700 24.328600 0.000019 0.000005 -2.797730 -2.056790 -53.706800 22.291600 -0.000001 0.000005 -4.870200 5.613790 -12.204500 12.994500 -0.242716 -4.980390 90.305100 -0.735148 -67.456100 -5.348130 -0.000001 -0.000004 -32.540600 17.729100 -40.873600 -24.328900 0.000322 -0.000009 -2.537160 -1.004880 -68.396100 -22.291500 -0.000108 -0.000004 2.150150 5.578470 -10.129600 -2.192480 -6.469440 -0.000000 173.147000 -7.508130 -45.844000 39.081100 -0.000007 -0.000012 -0.065868 -0.004970 94.323800 40.985400 -0.000006 -0.000013 6.751940 -6.587460 -55.533300 11.754300 -0.000000 0.000003 -0.004355 -0.055093 -18.818000 -2.192510 6.469440 -0.000001 174.072000 8.666450 175.458000 -39.081100 -0.002282 -0.040193 0.050873 -0.056330 40.195300 -40.985400 0.000008 0.000006 6.515080 3.215400 -69.628100 -11.754300 -0.000006 -0.000006 -0.134866 -0.523936 -38.642800
0.000000 0.000000 0.000000 0.000000 0.000000 -0.000000 -1.309880 90.660900 3.216960 -91.899900 9.247060 170.355000 15.735700 0.000005 -0.000001 112.139000 80.814700 -113.213000 8.984550 -0.406207 -0.000000 9.365670 6.869630 -2.712330 16.377300 -0.000001 -0.000001 4.772990 -1.004700 2.048300 6.456720 -0.000001 -0.000000 -2.901150 -4.872490 -3.948240 12.994200 -0.242716 4.980390 -87.798900 -4.486520 -63.834100 5.348090 -0.000007 -0.000001 -64.881200 21.218100 15.705900 24.328600 0.000019 0.000005 -2.039970 -1.463730 -54.356300 22.291600 -0.000001 0.000005 -4.480240 5.612260 -12.102200 12.994500 -0.242716 -4.980390 90.437300 -1.087330 -68.085800 -5.348130 -0.000001 -0.000004 -33.714800 18.209400 -41.740000 -24.328900 0.000322 -0.000009 -2.164520 -0.811200 -69.452800 -22.291500 -0.000108 -0.000004 1.344120 5.572910 -9.835520 -2.192480 -6.469440 -0.000000 172.890000 -6.910180 -46.459300 39.081100 -0.000007 -0.000012 0.029407 -0.008213 74.383900 40.985400 -0.000006 -0.000013 5.345820 -5.175340 -60.227700 11.754300 -0.000000 0.000003 -0.005077 -0.062219 -19.108400 -2.192510 6.469440 -0.000001 171.131000 10.875900 -179.972000 -39.081100 -0.002282 -0.040193 0.062814 -0.095019 32.061800 -40.985400 0.000008 0.000006 6.030570 9.049850 -48.706400 -11.754300 -0.000006 -0.000006 -0.249450 -0.721550 -47.914300
